<?xml version="1.0" encoding="utf-8"?>
<!-- Generator: Adobe Illustrator 27.1.1, SVG Export Plug-In . SVG Version: 6.00 Build 0)  -->
<svg version="1.1" id="Layer_1" xmlns="http://www.w3.org/2000/svg" xmlns:xlink="http://www.w3.org/1999/xlink" x="0px" y="0px"
	 viewBox="0 0 144 35.5" style="enable-background:new 0 0 144 35.5;" xml:space="preserve">
<style type="text/css">
	.st0{fill:none;}
	.st1{fill:url(#SVGID_1_);}
	.st2{fill:url(#SVGID_00000173862157191482782050000004517768106206604957_);}
	.st3{fill:url(#SVGID_00000088833939810035745720000017830990061991805845_);}
	.st4{fill:url(#SVGID_00000145779675077280210710000006986788889712979608_);}
	.st5{fill:url(#SVGID_00000109744275227716878930000016007107558166935467_);}
	.st6{fill:url(#SVGID_00000098927327188402974910000000135617746796992652_);}
	.st7{fill:url(#SVGID_00000135665540434770308330000003880650752059405754_);}
	.st8{fill:url(#SVGID_00000026881714130376638840000008785528305096951697_);}
	.st9{fill:url(#SVGID_00000029738303432897518940000000895198557777137044_);}
	.st10{fill:url(#SVGID_00000016066762824141916340000009927823968120313257_);}
	.st11{fill:url(#SVGID_00000027568323511845120980000010811576717873502393_);}
	.st12{fill:url(#SVGID_00000077324698399956823280000016124027775778857613_);}
	.st13{fill:url(#SVGID_00000005981636884598942790000000686182877816517793_);}
	.st14{fill:url(#SVGID_00000106837597452566941310000011030325719713610167_);}
	.st15{fill:url(#SVGID_00000135649629759837190130000017818123576193467035_);}
	.st16{fill:url(#SVGID_00000179606830257739005300000013425412759652237236_);}
	.st17{fill:url(#SVGID_00000072247715956760306180000017187506025124523905_);}
	.st18{fill:url(#SVGID_00000179623322874152106530000012187066738174465164_);}
	.st19{fill:url(#SVGID_00000037672685874395160840000005602018681314984369_);}
	.st20{fill:url(#SVGID_00000121999723785941950700000015346170205898492550_);}
	.st21{fill:url(#SVGID_00000145769264909645448170000010709503593462015141_);}
	.st22{fill:url(#SVGID_00000031209436475963187890000002133563602521217205_);}
	.st23{fill:url(#SVGID_00000011732469376361354640000000145286264488889269_);}
	.st24{fill:url(#SVGID_00000178894191607896541440000013110042755758557079_);}
	.st25{fill:url(#SVGID_00000119826518023786848570000002032948326594264737_);}
	.st26{fill:url(#SVGID_00000118375392078039906110000006925674213305605047_);}
	.st27{fill:url(#SVGID_00000138542972185157715950000004832950369588633754_);}
	.st28{fill:url(#SVGID_00000088828741569548095820000003571258565661747643_);}
	.st29{fill:url(#SVGID_00000078757951847223673190000006966842804749763469_);}
	.st30{fill:url(#SVGID_00000044881476439752320550000013829459261884521377_);}
	.st31{fill:url(#SVGID_00000162337000173036802400000016258759695796216479_);}
	.st32{fill:url(#SVGID_00000117665384050325516900000006396820967705314207_);}
</style>
<g>
	<g>
		<path class="st0" d="M20.4,18.6c0.5-0.5,0.5-1.2,0-1.7l-2-2c-0.5-0.5-1.2-0.5-1.7,0l-2,2c-0.5,0.5-0.5,1.3,0,1.7l2,2
			c0.5,0.5,1.3,0.5,1.7,0L20.4,18.6z"/>
		<linearGradient id="SVGID_1_" gradientUnits="userSpaceOnUse" x1="19.0905" y1="31.5996" x2="2.4581" y2="13.048">
			<stop  offset="0" style="stop-color:#F0047F"/>
			<stop  offset="0.1816" style="stop-color:#FE330A"/>
			<stop  offset="0.5" style="stop-color:#FE6707"/>
			<stop  offset="1" style="stop-color:#FE9F04"/>
		</linearGradient>
		<path class="st1" d="M8.5,18l-0.2-0.1c-1.2-1.2-1.9-2.8-1.9-4.6c0-0.8,0.1-1.5,0.4-2.2c0-0.1,0.1-0.2,0.1-0.3c0,0,0,0,0,0
			c0-0.1,0-0.1,0.1-0.2l-7,7.1l12.9,12.9c1-1.1,1.6-2.6,1.6-4.1c0-1.6-0.6-3.1-1.8-4.3L8.5,18z"/>
		
			<linearGradient id="SVGID_00000060021982924456129720000017516492752205375114_" gradientUnits="userSpaceOnUse" x1="15.5554" y1="6.7248" x2="5.6483" y2="15.5667">
			<stop  offset="0" style="stop-color:#F0047F"/>
			<stop  offset="0.5" style="stop-color:#AB1AC4"/>
			<stop  offset="1" style="stop-color:#702DFF"/>
		</linearGradient>
		<path style="fill:url(#SVGID_00000060021982924456129720000017516492752205375114_);" d="M7.8,14.3c0,0.2,0.1,0.3,0.2,0.5
			c0,0,0,0.1,0,0.1c0.1,0.2,0.1,0.3,0.2,0.5c0,0.1,0.1,0.2,0.2,0.3c0.1,0.1,0.1,0.2,0.2,0.3c0,0,0,0.1,0.1,0.1
			c0.1,0.1,0.1,0.2,0.2,0.3c0.1,0.1,0.1,0.2,0.2,0.3c0,0,0.1,0.1,0.1,0.1l4-4c2.3-2.3,2.3-6,0.1-8.3l-4,4l0,0
			c-1.1,1.1-1.7,2.6-1.7,4.2c0,0.2,0,0.4,0,0.6C7.6,13.6,7.7,14,7.8,14.3z"/>
		
			<linearGradient id="SVGID_00000019664536964338732280000005518260346359467155_" gradientUnits="userSpaceOnUse" x1="19.0553" y1="29.9521" x2="28.9667" y2="19.721">
			<stop  offset="0" style="stop-color:#F0047F"/>
			<stop  offset="0.5" style="stop-color:#AB1AC4"/>
			<stop  offset="1" style="stop-color:#702DFF"/>
		</linearGradient>
		<path style="fill:url(#SVGID_00000019664536964338732280000005518260346359467155_);" d="M22,22.7L22,22.7
			c-1.1,1.2-1.8,2.7-1.8,4.3c0,0.2,0,0.4,0,0.6c0,0.4,0.1,0.7,0.2,1.1c0,0.2,0.1,0.3,0.2,0.5c0,0,0,0.1,0,0.1
			c0.1,0.2,0.1,0.3,0.2,0.5c0,0.1,0.1,0.2,0.2,0.3c0.1,0.1,0.1,0.2,0.2,0.3c0,0,0,0.1,0.1,0.1c0.1,0.1,0.1,0.2,0.2,0.3
			c0.1,0.1,0.1,0.2,0.2,0.3c0,0,0.1,0.1,0.1,0.1l4-4c2.3-2.3,2.3-6,0.1-8.3L22,22.7z"/>
		
			<linearGradient id="SVGID_00000008836137034268027940000002357182117500190890_" gradientUnits="userSpaceOnUse" x1="16.2242" y1="5.9322" x2="31.3115" y2="20.9132">
			<stop  offset="0" style="stop-color:#F0047F"/>
			<stop  offset="0.1816" style="stop-color:#FE330A"/>
			<stop  offset="0.5" style="stop-color:#FE6707"/>
			<stop  offset="1" style="stop-color:#FE9F04"/>
		</linearGradient>
		<path style="fill:url(#SVGID_00000008836137034268027940000002357182117500190890_);" d="M28.6,23c0,0.1,0,0.3-0.1,0.4
			c0,0.1,0,0.2-0.1,0.2c0,0.1-0.1,0.3-0.1,0.4c0,0.1-0.1,0.2-0.1,0.3c0,0.1-0.1,0.2-0.1,0.4c0,0,0,0.1,0,0.1l7-7l-12.9-13
			c-1,1.1-1.6,2.6-1.6,4.1c0,1.6,0.6,3.1,1.8,4.3l4.2,4.3l0.2,0.2c1.2,1.2,1.9,2.8,1.9,4.6c0,0.2,0,0.4,0,0.7
			C28.6,22.9,28.6,23,28.6,23z"/>
		
			<radialGradient id="SVGID_00000030479210661990354310000014649815804586978968_" cx="17.4933" cy="18.1944" r="13.7416" gradientTransform="matrix(1 0 0 1.0119 0 -0.7149)" gradientUnits="userSpaceOnUse">
			<stop  offset="0" style="stop-color:#FE330A"/>
			<stop  offset="0.5" style="stop-color:#F71B46"/>
			<stop  offset="1" style="stop-color:#F0047F"/>
		</radialGradient>
		<path style="fill:url(#SVGID_00000030479210661990354310000014649815804586978968_);" d="M19.5,31.9
			C19.5,31.9,19.5,31.9,19.5,31.9l-0.8-0.8c-0.3-0.3-0.5-0.7-0.5-1.1l0-5.8c0-1,0.4-1.9,1.1-2.6l3.1-3.2c0.2-0.2,0.3-0.5,0.3-0.7
			c0-0.3-0.1-0.5-0.3-0.7l-3.1-3.2c-0.7-0.7-1.1-1.6-1.1-2.6V5.5c0-0.4,0.2-0.8,0.5-1.1L19.1,4l0,0l0.2-0.2l0.2-0.2c0,0,0,0,0,0
			L20.1,3c0.1-0.1,0.1-0.2,0-0.3l-2.4-2.4c-0.1-0.1-0.2-0.1-0.3,0L15,2.7C15,2.8,15,2.9,15,3l0.6,0.6c0,0,0,0,0,0l0.1,0.1l0,0
			l0.7,0.7c0.3,0.3,0.5,0.7,0.5,1.1l0,5.8c0,1-0.4,1.9-1.1,2.6L12.6,17c-0.2,0.2-0.3,0.5-0.3,0.7c0,0.3,0.1,0.5,0.3,0.7l3.1,3.2
			c0.7,0.7,1.1,1.6,1.1,2.6V30c0,0.4-0.2,0.8-0.5,1.1l-0.8,0.8c0,0,0,0,0,0L15,32.5c-0.1,0.1-0.1,0.2,0,0.3l2.4,2.4
			c0.1,0.1,0.2,0.1,0.3,0l2.4-2.4c0.1-0.1,0.1-0.2,0-0.3L19.5,31.9z M16.7,20.6l-2-2c-0.5-0.5-0.5-1.2,0-1.7l2-2
			c0.5-0.5,1.3-0.5,1.7,0l2,2c0.5,0.5,0.5,1.3,0,1.7l-2,2C17.9,21.1,17.2,21.1,16.7,20.6z"/>
	</g>
	<g>
		<g>
			
				<linearGradient id="SVGID_00000116951350158388768740000009647166306758083750_" gradientUnits="userSpaceOnUse" x1="90.9334" y1="5.5535" x2="91.1834" y2="30.9267">
				<stop  offset="0" style="stop-color:#F0047F"/>
				<stop  offset="1" style="stop-color:#B7037F"/>
			</linearGradient>
			<path style="fill:url(#SVGID_00000116951350158388768740000009647166306758083750_);" d="M88.7,18.3h4.9v7.4
				c0,0.1-0.1,0.2-0.2,0.2h-4.4c-0.1,0-0.2-0.1-0.2-0.2V18.3z"/>
			
				<linearGradient id="SVGID_00000108267098011931300530000002708559332292654776_" gradientUnits="userSpaceOnUse" x1="103.3554" y1="5.4297" x2="103.6054" y2="30.8028">
				<stop  offset="0" style="stop-color:#F0047F"/>
				<stop  offset="1" style="stop-color:#B7037F"/>
			</linearGradient>
			<path style="fill:url(#SVGID_00000108267098011931300530000002708559332292654776_);" d="M101.1,18.3h4.9v7.4
				c0,0.1-0.1,0.2-0.3,0.2h-4.4c-0.1,0-0.3-0.1-0.3-0.2V18.3z"/>
			
				<linearGradient id="SVGID_00000070091281883572985290000016794431468437624998_" gradientUnits="userSpaceOnUse" x1="116.1946" y1="5.3017" x2="116.4446" y2="30.6748">
				<stop  offset="0" style="stop-color:#F0047F"/>
				<stop  offset="1" style="stop-color:#B7037F"/>
			</linearGradient>
			<path style="fill:url(#SVGID_00000070091281883572985290000016794431468437624998_);" d="M118.8,18.3v7.4c0,0.1-0.1,0.2-0.3,0.2
				h-4.4c-0.1,0-0.3-0.1-0.3-0.2v-7.4H118.8z"/>
			
				<linearGradient id="SVGID_00000123441611322770904980000003490697273020653752_" gradientUnits="userSpaceOnUse" x1="132.474" y1="5.1426" x2="132.724" y2="30.5112">
				<stop  offset="0" style="stop-color:#F0047F"/>
				<stop  offset="1" style="stop-color:#B7037F"/>
			</linearGradient>
			<path style="fill:url(#SVGID_00000123441611322770904980000003490697273020653752_);" d="M144,19.4v2.9c-0.4,2-2,3.2-4.8,3.6
				h-17.8c-0.1,0-0.1-0.1-0.1-0.2l3.3-3.3c0,0,0.1-0.1,0.2-0.1h12c0.8,0,1.5-0.1,1.9-0.3c0.4-0.2,0.6-0.6,0.6-1.2
				c0-0.9-0.8-1.4-2.3-1.4H126c-1.5-0.2-2.6-0.6-3.4-1.2h21.1C143.8,18.7,143.9,19,144,19.4z"/>
			
				<linearGradient id="SVGID_00000182527864586383161950000010531118877333836474_" gradientUnits="userSpaceOnUse" x1="65.7068" y1="5.805" x2="65.9568" y2="31.1782">
				<stop  offset="0" style="stop-color:#F0047F"/>
				<stop  offset="1" style="stop-color:#B7037F"/>
			</linearGradient>
			<path style="fill:url(#SVGID_00000182527864586383161950000010531118877333836474_);" d="M63.5,18.3h4.8v7.4
				c0,0.1-0.1,0.2-0.2,0.2h-4.3c-0.1,0-0.2-0.1-0.2-0.2V18.3z"/>
			
				<linearGradient id="SVGID_00000060009957540241185400000002933492042209441958_" gradientUnits="userSpaceOnUse" x1="77.9198" y1="5.6816" x2="78.1698" y2="31.0566">
				<stop  offset="0" style="stop-color:#F0047F"/>
				<stop  offset="1" style="stop-color:#B7037F"/>
			</linearGradient>
			<path style="fill:url(#SVGID_00000060009957540241185400000002933492042209441958_);" d="M86.3,18.3v4.1c-0.4,2-2,3.2-4.8,3.5H70
				c-0.1,0-0.2-0.2-0.1-0.2l3.2-3.2c0,0,0.1-0.1,0.2-0.1h5.9c1.6,0,2.3-0.7,2.3-2v-2.1H86.3z"/>
			
				<linearGradient id="SVGID_00000037659152687923614490000002392355955231689376_" gradientUnits="userSpaceOnUse" x1="50.3843" y1="5.9586" x2="50.6342" y2="31.33">
				<stop  offset="0" style="stop-color:#F0047F"/>
				<stop  offset="1" style="stop-color:#B7037F"/>
			</linearGradient>
			<path style="fill:url(#SVGID_00000037659152687923614490000002392355955231689376_);" d="M61.1,22.5l-3.3,3.3
				c0,0-0.1,0.1-0.2,0.1H40.1c-0.1,0-0.1-0.1-0.1-0.2l3.3-3.3c0,0,0.1-0.1,0.2-0.1h4.4c0.1,0,0.2-0.1,0.2-0.2v-3.8H53v3.8
				c0,0,0,0,0,0.1l0,0c0,0.1,0.1,0.2,0.2,0.2H61C61.1,22.4,61.1,22.5,61.1,22.5z"/>
		</g>
		
			<linearGradient id="SVGID_00000093894912098167978370000014434566652121387170_" gradientUnits="userSpaceOnUse" x1="50.5635" y1="-5.0413" x2="50.5635" y2="38.7087">
			<stop  offset="0" style="stop-color:#FE6707"/>
			<stop  offset="1" style="stop-color:#FE330A"/>
		</linearGradient>
		<path style="fill:url(#SVGID_00000093894912098167978370000014434566652121387170_);" d="M61.1,9.7l-3.3,3.3c0,0-0.1,0.1-0.2,0.1
			h-4.4c-0.1,0-0.2,0.1-0.2,0.2v5h-4.8v-5c0,0,0,0,0-0.1c0-0.1-0.1-0.2-0.2-0.2h-7.8C40,13.1,40,13,40.1,13l3.3-3.3
			c0,0,0.1-0.1,0.2-0.1H61C61.1,9.6,61.1,9.7,61.1,9.7z"/>
		
			<linearGradient id="SVGID_00000111171480840080200580000013469338345144253110_" gradientUnits="userSpaceOnUse" x1="74.8742" y1="-5.0413" x2="74.8742" y2="38.7087">
			<stop  offset="0" style="stop-color:#FE6707"/>
			<stop  offset="1" style="stop-color:#FE330A"/>
		</linearGradient>
		<path style="fill:url(#SVGID_00000111171480840080200580000013469338345144253110_);" d="M86.3,13.1v5.2h-4.8v-3.1
			c0-1.4-0.8-2.1-2.5-2.1H68.5c-0.1,0-0.2,0.1-0.2,0.2v5h-4.8V9.8c0-0.1,0.1-0.2,0.2-0.2h17.8C84.3,10,85.9,11.2,86.3,13.1z"/>
		<path class="st0" d="M81.5,15.2v3.1H68.3v-5c0-0.1,0.1-0.2,0.2-0.2H79C80.7,13.1,81.5,13.8,81.5,15.2z"/>
		
			<linearGradient id="SVGID_00000144330010286535308050000014374224727136694456_" gradientUnits="userSpaceOnUse" x1="103.7285" y1="-5.0413" x2="103.7285" y2="38.7087">
			<stop  offset="0" style="stop-color:#FE6707"/>
			<stop  offset="1" style="stop-color:#FE330A"/>
		</linearGradient>
		<path style="fill:url(#SVGID_00000144330010286535308050000014374224727136694456_);" d="M118.8,13.1v5.3h-4.9v-3.2
			c0-1.3-0.8-1.9-2.4-1.9h-5.3c-0.1,0-0.3,0.1-0.3,0.2v5h-4.9v-5c0-0.1-0.1-0.2-0.3-0.2h-7c-0.1,0-0.3,0.1-0.3,0.2v5h-4.9V9.8
			c0-0.1,0.1-0.2,0.2-0.2h25C116.8,9.6,118.8,11.2,118.8,13.1z"/>
		<path class="st0" d="M101.1,13.4v5h-7.5v-5c0-0.1,0.1-0.2,0.3-0.2h7C101,13.1,101.1,13.3,101.1,13.4z"/>
		<path class="st0" d="M113.9,15.1v3.2h-8v-5c0-0.1,0.1-0.2,0.3-0.2h5.3C113.1,13.1,113.9,13.8,113.9,15.1z"/>
		
			<linearGradient id="SVGID_00000121991033874940772440000016503289454286781085_" gradientUnits="userSpaceOnUse" x1="132.5109" y1="-5.0413" x2="132.5109" y2="38.7087">
			<stop  offset="0" style="stop-color:#FE6707"/>
			<stop  offset="1" style="stop-color:#FE330A"/>
		</linearGradient>
		<path style="fill:url(#SVGID_00000121991033874940772440000016503289454286781085_);" d="M126,14.6c0,0.5,0.2,0.8,0.6,1
			c0.4,0.2,1,0.3,1.8,0.3h10.9c2.3,0.3,3.7,1,4.4,2.4h-21.1c-0.7-0.6-1.2-1.3-1.4-2.3v-2.9c0.4-2,2-3.2,4.8-3.6h17.8
			c0.1,0,0.1,0.1,0.1,0.2l-3.3,3.3c0,0-0.1,0.1-0.2,0.1h-12c-0.8,0-1.5,0.1-1.9,0.3C126.2,13.6,126,14,126,14.6z"/>
	</g>
	<g>
		
			<linearGradient id="SVGID_00000176016508952233947590000013499917907365553306_" gradientUnits="userSpaceOnUse" x1="79.581" y1="17.5411" x2="98.4617" y2="17.7801">
			<stop  offset="0" style="stop-color:#FE9F04"/>
			<stop  offset="0.5" style="stop-color:#FE6707"/>
			<stop  offset="1" style="stop-color:#FE330A"/>
		</linearGradient>
		<path style="fill:url(#SVGID_00000176016508952233947590000013499917907365553306_);" d="M103.4,9.6H88.9c-0.1,0-0.2,0.1-0.2,0.2
			v15.9c0,0.1,0.1,0.2,0.2,0.2h4.4c0.1,0,0.2-0.1,0.2-0.2V13.4C93.5,13.4,92.9,9.6,103.4,9.6z"/>
		
			<linearGradient id="SVGID_00000085237021993038602600000003862799384213737092_" gradientUnits="userSpaceOnUse" x1="98.3733" y1="17.7655" x2="120.2812" y2="17.6859">
			<stop  offset="0" style="stop-color:#FE330A"/>
			<stop  offset="0.5" style="stop-color:#F71B46"/>
			<stop  offset="1" style="stop-color:#F0047F"/>
		</linearGradient>
		<path style="fill:url(#SVGID_00000085237021993038602600000003862799384213737092_);" d="M113.9,9.6h-10.5
			c-10.5,0-9.9,3.8-9.9,3.8c0-0.1,0.1-0.2,0.3-0.2h7c0.1,0,0.3,0.1,0.3,0.2v12.3c0,0.1,0.1,0.2,0.3,0.2c0,0,2-0.4,4.6-1.2V13.4
			c0-0.1,0.1-0.2,0.3-0.2h5.3c1.6,0,2.4,0.6,2.4,1.9v6.3c2.8-1.6,4.9-3.6,4.9-6.1v-2.2C118.8,11.2,116.8,9.6,113.9,9.6z"/>
		
			<linearGradient id="SVGID_00000070814661804708389780000008109559308091644320_" gradientUnits="userSpaceOnUse" x1="106.6218" y1="25.3167" x2="100.9456" y2="25.3167">
			<stop  offset="0" style="stop-color:#F0047F"/>
			<stop  offset="0.5953" style="stop-color:#AB1AC4"/>
			<stop  offset="1" style="stop-color:#702DFF"/>
		</linearGradient>
		<path style="fill:url(#SVGID_00000070814661804708389780000008109559308091644320_);" d="M105.7,25.9c0.1,0,0.3-0.1,0.3-0.2v-1
			c-2.6,0.8-4.6,1.2-4.6,1.2H105.7z"/>
		
			<linearGradient id="SVGID_00000073713699807293389300000006100587827970291857_" gradientUnits="userSpaceOnUse" x1="119.8166" y1="20.6094" x2="111.3293" y2="20.729">
			<stop  offset="0" style="stop-color:#F0047F"/>
			<stop  offset="0.4432" style="stop-color:#AB1AC4"/>
			<stop  offset="1" style="stop-color:#702DFF"/>
		</linearGradient>
		<path style="fill:url(#SVGID_00000073713699807293389300000006100587827970291857_);" d="M113.9,21.4v4.3c0,0.1,0.1,0.2,0.3,0.2
			h4.4c0.1,0,0.2-0.1,0.2-0.2V15.3C118.8,17.8,116.7,19.8,113.9,21.4z"/>
		
			<linearGradient id="SVGID_00000150781360934311372580000005744895207258610562_" gradientUnits="userSpaceOnUse" x1="121.7459" y1="17.4425" x2="147.0032" y2="18.1596">
			<stop  offset="0" style="stop-color:#FE330A"/>
			<stop  offset="0.5" style="stop-color:#F71B46"/>
			<stop  offset="1" style="stop-color:#F0047F"/>
		</linearGradient>
		<path style="fill:url(#SVGID_00000150781360934311372580000005744895207258610562_);" d="M139.2,15.9h-10.9
			c-0.8,0-1.4-0.1-1.8-0.3c-0.4-0.2-0.6-0.5-0.6-1c0,0-1-5.1,12.3-5.1H126c-2.8,0.4-4.4,1.6-4.8,3.6v2.9c0.4,2,2,3.1,4.8,3.4h10.9
			c1.6,0,2.3,0.5,2.3,1.4c0,0,1.3,5-12.2,5.1h12.2c2.8-0.4,4.4-1.6,4.8-3.6v-2.9C143.6,17.4,142,16.2,139.2,15.9z"/>
		
			<linearGradient id="SVGID_00000012468429495403704180000003089378854630310588_" gradientUnits="userSpaceOnUse" x1="141.9776" y1="23.6319" x2="121.5844" y2="23.2336">
			<stop  offset="0" style="stop-color:#F0047F"/>
			<stop  offset="0.5" style="stop-color:#AB1AC4"/>
			<stop  offset="1" style="stop-color:#702DFF"/>
		</linearGradient>
		<path style="fill:url(#SVGID_00000012468429495403704180000003089378854630310588_);" d="M139.2,20.9c0,0.6-0.2,1-0.6,1.2
			c-0.4,0.2-1,0.3-1.9,0.3h-12c-0.1,0-0.1,0-0.2,0.1l-3.3,3.3c-0.1,0.1,0,0.2,0.1,0.2h5.6C140.5,25.9,139.2,20.9,139.2,20.9z"/>
		
			<linearGradient id="SVGID_00000136401492802071052470000009814879476161590954_" gradientUnits="userSpaceOnUse" x1="153.1079" y1="12.1777" x2="125.6238" y2="12.0582">
			<stop  offset="0" style="stop-color:#FE9F04"/>
			<stop  offset="0.5" style="stop-color:#FE6707"/>
			<stop  offset="1" style="stop-color:#FE330A"/>
		</linearGradient>
		<path style="fill:url(#SVGID_00000136401492802071052470000009814879476161590954_);" d="M126,14.6c0-0.6,0.2-1,0.6-1.2
			c0.4-0.2,1-0.3,1.9-0.3h12c0.1,0,0.1,0,0.2-0.1l3.3-3.3c0.1-0.1,0-0.2-0.1-0.2h-5.5C124.9,9.6,126,14.6,126,14.6z"/>
		
			<linearGradient id="SVGID_00000075880938343744498090000009139196100538320004_" gradientUnits="userSpaceOnUse" x1="59.2107" y1="17.5069" x2="70.9215" y2="17.7459">
			<stop  offset="0" style="stop-color:#FE9F04"/>
			<stop  offset="0.5" style="stop-color:#FE6707"/>
			<stop  offset="1" style="stop-color:#FE330A"/>
		</linearGradient>
		<path style="fill:url(#SVGID_00000075880938343744498090000009139196100538320004_);" d="M78.7,9.6h-15c-0.1,0-0.2,0.1-0.2,0.2
			v15.9c0,0.1,0.1,0.2,0.2,0.2H68c0.1,0,0.2-0.1,0.2-0.2V13.4C68.3,13.4,67.6,9.6,78.7,9.6z"/>
		
			<linearGradient id="SVGID_00000074437300482316497590000005774337355007871901_" gradientUnits="userSpaceOnUse" x1="68.27" y1="15.9741" x2="86.2943" y2="15.9741">
			<stop  offset="0" style="stop-color:#FE330A"/>
			<stop  offset="0.5" style="stop-color:#F71B46"/>
			<stop  offset="1" style="stop-color:#F0047F"/>
		</linearGradient>
		<path style="fill:url(#SVGID_00000074437300482316497590000005774337355007871901_);" d="M81.5,9.6h-2.8
			c-11.1,0-10.4,3.8-10.4,3.8c0-0.1,0.1-0.2,0.2-0.2H79c1.6,0,2.5,0.7,2.5,2.1v5.2c0,1.3-0.8,2-2.3,2c0,0,7.1,0.4,7.1-4.8v-4.4
			C85.9,11.2,84.3,10,81.5,9.6z"/>
		
			<linearGradient id="SVGID_00000178906597278435486840000007516728764290388649_" gradientUnits="userSpaceOnUse" x1="86.9107" y1="21.8347" x2="69.783" y2="21.6753">
			<stop  offset="0" style="stop-color:#F0047F"/>
			<stop  offset="0.5" style="stop-color:#AB1AC4"/>
			<stop  offset="1" style="stop-color:#702DFF"/>
		</linearGradient>
		<path style="fill:url(#SVGID_00000178906597278435486840000007516728764290388649_);" d="M79.2,22.4h-5.9c-0.1,0-0.1,0-0.2,0.1
			l-3.2,3.2c-0.1,0.1,0,0.3,0.1,0.3h11.5c2.8-0.3,4.4-1.5,4.8-3.5v-4.8C86.3,22.8,79.2,22.4,79.2,22.4z"/>
		
			<linearGradient id="SVGID_00000083793629845511895420000016169604722827074719_" gradientUnits="userSpaceOnUse" x1="32.6157" y1="11.0633" x2="53.6467" y2="11.4218">
			<stop  offset="0" style="stop-color:#FE9F04"/>
			<stop  offset="0.5" style="stop-color:#FE6707"/>
			<stop  offset="1" style="stop-color:#FE330A"/>
		</linearGradient>
		<path style="fill:url(#SVGID_00000083793629845511895420000016169604722827074719_);" d="M61,9.6H43.5c-0.1,0-0.1,0-0.2,0.1
			L40.1,13c-0.1,0.1,0,0.2,0.1,0.2h7.8c0.1,0,0.2,0.1,0.2,0.2C48.1,12.8,48.2,9.6,61,9.6z"/>
		
			<linearGradient id="SVGID_00000146494084105321569610000010295669052795033988_" gradientUnits="userSpaceOnUse" x1="50.5214" y1="5.8419" x2="50.6021" y2="28.3351">
			<stop  offset="0" style="stop-color:#FE330A"/>
			<stop  offset="0.5" style="stop-color:#F71B46"/>
			<stop  offset="1" style="stop-color:#F0047F"/>
		</linearGradient>
		<path style="fill:url(#SVGID_00000146494084105321569610000010295669052795033988_);" d="M53.2,13.1h4.4c0.1,0,0.1,0,0.2-0.1
			l3.3-3.3c0.1-0.1,0-0.2-0.1-0.2c-12.8,0-12.9,3.2-12.8,3.7c0,0,0,0.1,0,0.1v8.7c0,0.1-0.1,0.2-0.2,0.2h-4.4c-0.1,0-0.1,0-0.2,0.1
			l-3.3,3.3c-0.1,0.1,0,0.2,0.1,0.2c12.7,0,12.9-3.2,12.8-3.7l0,0l0-0.1v-8.7C53,13.2,53.1,13.1,53.2,13.1z"/>
		
			<linearGradient id="SVGID_00000036945004388422021180000006936716050346710446_" gradientUnits="userSpaceOnUse" x1="42.1884" y1="24.0318" x2="63.4588" y2="24.1911">
			<stop  offset="0" style="stop-color:#F0047F"/>
			<stop  offset="0.5" style="stop-color:#AB1AC4"/>
			<stop  offset="1" style="stop-color:#702DFF"/>
		</linearGradient>
		<path style="fill:url(#SVGID_00000036945004388422021180000006936716050346710446_);" d="M40.1,25.9h17.5c0.1,0,0.1,0,0.2-0.1
			l3.3-3.3c0.1-0.1,0-0.2-0.1-0.2h-7.8c-0.1,0-0.2-0.1-0.2-0.2C53,22.7,52.8,25.9,40.1,25.9z"/>
		
			<linearGradient id="SVGID_00000145037922380314223340000007258427974653334663_" gradientUnits="userSpaceOnUse" x1="52.961" y1="22.1581" x2="52.9703" y2="22.1581">
			<stop  offset="0" style="stop-color:#F0047F"/>
			<stop  offset="0.5" style="stop-color:#B7037F"/>
			<stop  offset="1" style="stop-color:#78027E"/>
		</linearGradient>
		<path style="fill:url(#SVGID_00000145037922380314223340000007258427974653334663_);" d="M53,22.1L53,22.1
			C53,22.1,53,22.1,53,22.1z"/>
		
			<linearGradient id="SVGID_00000000181096272301123730000010225976518196404925_" gradientUnits="userSpaceOnUse" x1="52.9071" y1="5.834" x2="52.9877" y2="28.3258">
			<stop  offset="0" style="stop-color:#FE330A"/>
			<stop  offset="0.5" style="stop-color:#F71B46"/>
			<stop  offset="1" style="stop-color:#F0047F"/>
		</linearGradient>
		<path style="fill:url(#SVGID_00000000181096272301123730000010225976518196404925_);" d="M53,22.1L53,22.1
			C53,22.1,53,22.1,53,22.1z"/>
		
			<linearGradient id="SVGID_00000057137994521085846110000003100827207602919829_" gradientUnits="userSpaceOnUse" x1="52.961" y1="22.1581" x2="52.9703" y2="22.1581">
			<stop  offset="0" style="stop-color:#F0047F"/>
			<stop  offset="0.5" style="stop-color:#B7037F"/>
			<stop  offset="1" style="stop-color:#78027E"/>
		</linearGradient>
		<path style="fill:url(#SVGID_00000057137994521085846110000003100827207602919829_);" d="M53,22.1L53,22.1
			C53,22.1,53,22.1,53,22.1z"/>
	</g>
</g>
</svg>
